<svg width="1123" height="68" viewBox="0 0 1123 68" fill="none" xmlns="http://www.w3.org/2000/svg">
<path d="M20.5781 0.609375C26.7031 0.609375 31.375 0.9375 34.5938 1.59375C36.0625 1.875 37.2344 2.4375 38.1094 3.28125C39.0156 4.09375 39.4688 5.03125 39.4688 6.09375C39.4688 6.90625 39.125 7.73438 38.4375 8.57812C37.4375 9.85938 36.9375 10.7812 36.9375 11.3438C36.9375 12.4688 37.8281 14.2656 39.6094 16.7344C40.7656 18.3281 41.8594 19.125 42.8906 19.125C43.5469 19.125 44.1875 18.8906 44.8125 18.4219C45.4375 17.9219 46.25 17.0469 47.25 15.7969C48.4688 14.2656 49.0781 13.0469 49.0781 12.1406C49.0781 11.5781 49 11.1562 48.8438 10.875C48.7188 10.5938 48.2188 9.92188 47.3438 8.85938C46.7188 8.14063 46.4062 7.17188 46.4062 5.95312C46.4062 2.42188 51.1875 0.65625 60.75 0.65625C66.1562 0.65625 69.6719 0.90625 71.2969 1.40625C72.3281 1.71875 73.1719 2.3125 73.8281 3.1875C74.5156 4.0625 74.8594 5 74.8594 6C74.8594 7.28125 74.4688 8.25 73.6875 8.90625C72.9062 9.5625 71.5469 10.0625 69.6094 10.4062C67.8281 10.75 66.2812 11.4375 64.9688 12.4688C63.6562 13.4688 61.25 15.8438 57.75 19.5938C53.5 24.1875 50.8438 27.5781 49.7812 29.7656C48.75 31.9219 48.2344 35.1562 48.2344 39.4688C48.2344 43.0938 48.375 46.4531 48.6562 49.5469C48.8125 51.4531 49.1094 52.7812 49.5469 53.5312C49.9844 54.25 50.8906 54.9688 52.2656 55.6875C54.5469 56.875 55.6875 58.3594 55.6875 60.1406C55.6875 64.3906 49.4062 66.5156 36.8438 66.5156C31.6875 66.5156 26.8125 66.0156 22.2188 65.0156C18.3438 64.1719 16.4062 62.5 16.4062 60C16.4062 58.0625 17.5938 56.6719 19.9688 55.8281C21.75 55.2031 22.8594 54.4062 23.2969 53.4375C24.2969 51.2812 24.7969 46.1875 24.7969 38.1562C24.7969 35.6562 24.5469 33.7188 24.0469 32.3438C23.5469 30.9375 22.4531 29.125 20.7656 26.9062C17.2344 22.3125 13.5938 18.1719 9.84375 14.4844C8.21875 12.8906 6.65625 11.8125 5.15625 11.25C3.03125 10.4688 1.75 9.89062 1.3125 9.51562C0.4375 8.76562 0 7.76563 0 6.51562C0 4.42187 1.57812 2.92187 4.73438 2.01562C7.89062 1.07812 13.1719 0.609375 20.5781 0.609375ZM145.5 25.0312V36.4688C145.5 43.375 144.984 48.2656 143.953 51.1406C141.734 57.2031 136.859 61.5938 129.328 64.3125C124.766 66 119.609 66.8438 113.859 66.8438C103.828 66.8438 95.7969 64.4531 89.7656 59.6719C86.8281 57.3281 84.7969 54.6094 83.6719 51.5156C82.5469 48.4219 81.9844 43.9531 81.9844 38.1094C81.9844 35.8281 82.0625 32.0781 82.2188 26.8594C82.3125 23.1719 82.3594 20.7344 82.3594 19.5469C82.3594 16.9531 82.1562 15.1562 81.75 14.1562C81.375 13.1562 80.5312 12.2188 79.2188 11.3438C77.1562 10 76.125 8.5 76.125 6.84375C76.125 5.625 76.6406 4.54688 77.6719 3.60938C78.7344 2.67188 80.125 2.03125 81.8438 1.6875C85.2812 1 89.3438 0.65625 94.0312 0.65625C99.1875 0.65625 103.469 1.04687 106.875 1.82812C110.219 2.57812 111.891 4.28125 111.891 6.9375C111.891 8.25 111.406 9.29687 110.438 10.0781C110.219 10.2656 109.281 10.75 107.625 11.5312C106.625 11.9688 105.938 12.7656 105.562 13.9219C105.219 15.0781 105.047 16.9844 105.047 19.6406C105.047 22.3594 104.922 28.2344 104.672 37.2656C104.516 42.6406 105.969 46.7344 109.031 49.5469C111.531 51.8594 114.75 53.0156 118.688 53.0156C121.188 53.0156 123.453 52.5625 125.484 51.6562C127.516 50.7188 129.062 49.4531 130.125 47.8594C130.969 46.6406 131.547 45.2812 131.859 43.7812C132.172 42.2812 132.328 40.2344 132.328 37.6406V27.3281C132.172 19.4219 131.938 14.7969 131.625 13.4531C131.344 12.0781 130.344 11 128.625 10.2188C127 9.5 125.891 8.84375 125.297 8.25C124.703 7.65625 124.406 6.92188 124.406 6.04688C124.406 4.17188 125.516 2.8125 127.734 1.96875C129.984 1.09375 133.578 0.65625 138.516 0.65625C143.359 0.65625 146.859 1.07812 149.016 1.92188C151.203 2.76562 152.297 4.10938 152.297 5.95312C152.297 6.85937 152.109 7.53125 151.734 7.96875C151.359 8.40625 150.375 9.07813 148.781 9.98438C147.125 10.9219 146.172 11.9375 145.922 13.0312C145.703 14.0938 145.562 18.0938 145.5 25.0312ZM175.688 0.5625C185.438 0.5625 190.312 2.57812 190.312 6.60938C190.312 7.70312 190.062 8.59375 189.562 9.28125C189.062 9.96875 188.109 10.7344 186.703 11.5781C185.484 12.3281 184.703 13.3125 184.359 14.5312C184.047 15.75 183.891 18.2188 183.891 21.9375C183.891 24.125 184.297 25.4688 185.109 25.9688C185.578 26.2812 186.281 26.4688 187.219 26.5312C188.188 26.5938 190.438 26.625 193.969 26.625C197.188 26.625 199.188 26.4531 199.969 26.1094C200.75 25.7656 201.141 24.9062 201.141 23.5312C201.141 19.4062 200.953 16.5312 200.578 14.9062C200.203 13.2812 199.469 12.1719 198.375 11.5781C197 10.7969 196.094 10.1406 195.656 9.60938C195.219 9.04688 195 8.3125 195 7.40625C195 6.125 195.484 4.96875 196.453 3.9375C197.422 2.875 198.688 2.15625 200.25 1.78125C203.5 1 207.578 0.609375 212.484 0.609375C218.234 0.609375 222.469 1.14062 225.188 2.20312C227.938 3.23438 229.312 4.85938 229.312 7.07812C229.312 8.95312 228.344 10.3594 226.406 11.2969C225.188 11.8594 224.391 12.4062 224.016 12.9375C223.641 13.4375 223.344 14.3906 223.125 15.7969C223 16.5781 222.844 20.0469 222.656 26.2031C222.469 32.3594 222.375 37.25 222.375 40.875C222.375 47.2188 222.609 51.25 223.078 52.9688C223.328 53.9062 223.609 54.5312 223.922 54.8438C224.234 55.1562 225.219 55.7812 226.875 56.7188C228.062 57.375 228.656 58.375 228.656 59.7188C228.656 62.0938 227.234 63.8281 224.391 64.9219C221.578 65.9844 217 66.5156 210.656 66.5156C205.094 66.5156 200.984 65.9688 198.328 64.875C195.922 63.875 194.719 62.3281 194.719 60.2344C194.719 58.4531 195.641 57.0625 197.484 56.0625C198.391 55.5625 199 55.0625 199.312 54.5625C199.656 54.0625 199.984 53.1406 200.297 51.7969C200.859 49.1719 201.141 45.9531 201.141 42.1406C201.141 40.1719 200.844 38.9531 200.25 38.4844C199.688 38.0156 198.188 37.7812 195.75 37.7812C190.156 37.7812 186.594 38.0938 185.062 38.7188C184.438 38.9688 184.047 39.7031 183.891 40.9219C183.703 42.4219 183.609 44.2656 183.609 46.4531C183.609 50.0156 184.109 52.5781 185.109 54.1406C185.453 54.6406 186.266 55.2812 187.547 56.0625C188.859 56.8125 189.516 58.0469 189.516 59.7656C189.516 61.9531 188 63.625 184.969 64.7812C181.938 65.9375 177.609 66.5156 171.984 66.5156C166.859 66.5156 162.672 65.9844 159.422 64.9219C158.016 64.4531 156.906 63.7969 156.094 62.9531C155.312 62.0781 154.922 61.125 154.922 60.0938C154.922 59.0625 155.172 58.2656 155.672 57.7031C156.172 57.1406 157.266 56.4219 158.953 55.5469C159.828 55.1094 160.438 54.5469 160.781 53.8594C161.156 53.1719 161.438 52.0156 161.625 50.3906C162.094 46.7344 162.328 41.9531 162.328 36.0469C162.328 34.9531 162.312 33.6562 162.281 32.1562C162.156 24.6562 162.094 20.375 162.094 19.3125C162.125 16.625 161.891 14.8594 161.391 14.0156C160.922 13.1406 159.656 12.1875 157.594 11.1562C156.219 10.5 155.531 9.51562 155.531 8.20312C155.531 5.04688 158.594 2.85938 164.719 1.64062C168.281 0.921875 171.938 0.5625 175.688 0.5625ZM293.062 33.1875L301.922 52.1719C302.766 53.9219 303.469 55.0781 304.031 55.6406C304.594 56.1719 305.453 56.5312 306.609 56.7188C308.859 57.0625 309.984 58.2031 309.984 60.1406C309.984 62.4219 308.609 64.0625 305.859 65.0625C303.109 66.0625 298.609 66.5625 292.359 66.5625C285.297 66.5625 280.062 66.2656 276.656 65.6719C275.094 65.3906 273.844 64.8281 272.906 63.9844C272 63.1094 271.547 62.0625 271.547 60.8438C271.547 59.9062 271.781 59.1875 272.25 58.6875C272.75 58.1562 273.656 57.6719 274.969 57.2344C276.438 56.7344 277.172 55.8906 277.172 54.7031C277.172 52.6094 275.906 51.375 273.375 51C270.656 50.625 266.828 50.4375 261.891 50.4375C257.734 50.4375 255.25 50.6875 254.438 51.1875C253.938 51.5 253.5 52.0625 253.125 52.875C252.75 53.6875 252.562 54.4688 252.562 55.2188C252.562 55.9062 252.688 56.3594 252.938 56.5781C253.219 56.7656 254.094 57.0938 255.562 57.5625C257.469 58.125 258.422 59.25 258.422 60.9375C258.422 64.6562 253.969 66.5156 245.062 66.5156C240 66.5156 236.281 66.1719 233.906 65.4844C231.719 64.8281 230.625 63.3906 230.625 61.1719C230.625 60.2031 230.859 59.4531 231.328 58.9219C231.828 58.3906 232.703 57.9062 233.953 57.4688C235.984 56.75 237.516 55.75 238.547 54.4688C239.609 53.1562 241.109 50.375 243.047 46.125L249.656 31.6406C252.094 26.3281 253.719 22.3594 254.531 19.7344C255.375 17.0781 255.812 14.4844 255.844 11.9531C255.875 9.26563 256.031 7.40625 256.312 6.375C256.625 5.3125 257.297 4.28125 258.328 3.28125C260.484 1.09375 263.234 0 266.578 0C269.734 0 272.75 1.23437 275.625 3.70312C279.625 7.07812 285.438 16.9062 293.062 33.1875ZM260.438 39.0938H269.625C271.312 39.0938 272.156 38.7188 272.156 37.9688C272.156 36.9375 270.984 34.4062 268.641 30.375C267.578 28.5312 266.766 27.2969 266.203 26.6719C265.641 26.0469 265.047 25.7344 264.422 25.7344C263.297 25.7344 262.359 26.7812 261.609 28.875C261.484 29.1562 261.031 30.2656 260.25 32.2031C258.938 35.3906 258.281 37.2969 258.281 37.9219C258.281 38.7031 259 39.0938 260.438 39.0938ZM337.688 3.84375L361.031 24.2812C363.219 26.1875 364.797 27.1406 365.766 27.1406C367.391 27.1406 368.203 25.4062 368.203 21.9375C368.203 18 367.969 15.3125 367.5 13.875C367.031 12.4375 366.047 11.3594 364.547 10.6406C363.328 10.0469 362.469 9.42188 361.969 8.76562C361.469 8.07812 361.219 7.20313 361.219 6.14062C361.219 3.51562 363.016 1.82812 366.609 1.07812C368.078 0.765625 370.641 0.609375 374.297 0.609375C379.016 0.609375 382.281 0.890625 384.094 1.45312C386.969 2.32813 388.406 3.98438 388.406 6.42188C388.406 8.45312 387.234 9.98438 384.891 11.0156C383.953 11.4219 383.312 11.7812 382.969 12.0938C382.625 12.4062 382.328 12.875 382.078 13.5C381.234 15.5625 380.797 19.4688 380.766 25.2188V40.5C380.766 42.8438 380.781 46.0469 380.812 50.1094C380.844 55.6094 380.516 59.5781 379.828 62.0156C378.984 65.0469 377.453 66.5625 375.234 66.5625C374.266 66.5625 373.422 66.3594 372.703 65.9531C372.016 65.5469 370.859 64.6094 369.234 63.1406L341.438 38.25C339.5 36.5 337.891 35.625 336.609 35.625C334.703 35.625 333.75 38.2656 333.75 43.5469C333.75 47.8906 333.984 50.8594 334.453 52.4531C334.953 54.0469 335.953 55.2188 337.453 55.9688C339.547 57 340.594 58.3438 340.594 60C340.594 64.3438 335.922 66.5156 326.578 66.5156C322.359 66.5156 319.078 65.9688 316.734 64.875C314.422 63.75 313.266 62.1719 313.266 60.1406C313.266 59.0781 313.484 58.2812 313.922 57.75C314.359 57.2188 315.344 56.5 316.875 55.5938C318.344 54.7188 319.234 53.1719 319.547 50.9531C320.078 46.9219 320.344 41.125 320.344 33.5625C320.344 25.5 319.875 19.625 318.938 15.9375C318.594 14.5938 318.156 13.5938 317.625 12.9375C317.094 12.2812 316.219 11.6562 315 11.0625C313.594 10.375 312.609 9.70312 312.047 9.04688C311.516 8.39062 311.25 7.59375 311.25 6.65625C311.25 3.65625 313.828 1.76563 318.984 0.984375C320.734 0.734375 323.797 0.609375 328.172 0.609375C330.672 0.609375 332.484 0.8125 333.609 1.21875C334.766 1.59375 336.125 2.46875 337.688 3.84375ZM419.906 0.28125C423.125 0.28125 427.344 1.07812 432.562 2.67188C433.188 2.85938 433.688 2.95312 434.062 2.95312C434.375 2.95312 435.312 2.67188 436.875 2.10938C437.375 1.92188 437.906 1.82812 438.469 1.82812C440.562 1.82812 442.766 3.48437 445.078 6.79688C447.422 10.1094 448.594 13.2656 448.594 16.2656C448.594 18.0156 448.062 19.5 447 20.7188C445.969 21.9062 444.703 22.5 443.203 22.5C441.953 22.5 440.938 22.25 440.156 21.75C439.375 21.25 437.656 19.7656 435 17.2969C431.25 13.7969 427.562 12.0469 423.938 12.0469C422.188 12.0469 420.781 12.4688 419.719 13.3125C418.688 14.1562 418.172 15.2656 418.172 16.6406C418.172 19.3594 420.562 21.4062 425.344 22.7812C431.812 24.6875 435.953 26.0781 437.766 26.9531C445.734 30.8281 449.719 36.5312 449.719 44.0625C449.719 50.7188 447 56.1562 441.562 60.375C436 64.6875 428.734 66.8438 419.766 66.8438C415.766 66.8438 411.547 66.375 407.109 65.4375C402.672 64.4688 399.469 63.3438 397.5 62.0625C396 61.0625 394.641 58.8906 393.422 55.5469C392.234 52.1719 391.641 48.8906 391.641 45.7031C391.641 44.1719 391.953 43.0156 392.578 42.2344C393.359 41.2344 394.344 40.7344 395.531 40.7344C396.719 40.7344 397.859 41.3438 398.953 42.5625C399.609 43.25 401.156 45.4531 403.594 49.1719C404.75 50.9219 406.578 52.375 409.078 53.5312C411.609 54.6875 414.219 55.2656 416.906 55.2656C419.219 55.2656 421.094 54.8438 422.531 54C423.969 53.125 424.688 52.0156 424.688 50.6719C424.688 49.4219 424.125 48.3438 423 47.4375C421.875 46.5312 420.047 45.6875 417.516 44.9062C413.047 43.5 409.641 42.2188 407.297 41.0625C404.953 39.875 402.766 38.3906 400.734 36.6094C395.797 32.2344 393.328 27.2656 393.328 21.7031C393.328 18.9531 393.969 16.2812 395.25 13.6875C396.531 11.0625 398.344 8.79688 400.688 6.89062C405.938 2.48438 412.344 0.28125 419.906 0.28125ZM473.625 0.609375C477.188 0.609375 480.547 0.921875 483.703 1.54688C487.953 2.39062 490.078 4.1875 490.078 6.9375C490.078 7.84375 489.859 8.53125 489.422 9C489.016 9.4375 487.953 10.0938 486.234 10.9688C484.797 11.6875 483.844 13.2656 483.375 15.7031C482.938 18.1406 482.719 22.8906 482.719 29.9531C482.719 41.8906 483.016 49.2812 483.609 52.125C483.828 53.0312 484.156 53.7344 484.594 54.2344C485.062 54.7031 485.859 55.2188 486.984 55.7812C489.047 56.7188 490.078 58.0781 490.078 59.8594C490.078 62.3594 488.172 64.0781 484.359 65.0156C480.234 66.0156 475.188 66.5156 469.219 66.5156C459.031 66.5156 453.938 64.5781 453.938 60.7031C453.938 59.2969 454.938 57.9844 456.938 56.7656C458.469 55.8281 459.375 54.5469 459.656 52.9219C460.25 49.3594 460.547 41.7969 460.547 30.2344C460.547 22.2344 460.141 17.1094 459.328 14.8594C458.891 13.5781 457.844 12.4219 456.188 11.3906C454.906 10.5469 454.047 9.84375 453.609 9.28125C453.172 8.71875 452.953 8 452.953 7.125C452.953 5.78125 453.594 4.71875 454.875 3.9375C456.188 3.125 458.484 2.40625 461.766 1.78125C465.672 1 469.625 0.609375 473.625 0.609375ZM525.141 43.5V18.8438C525.141 15.6562 524.922 13.6406 524.484 12.7969C524.047 11.9219 522.859 11.2188 520.922 10.6875C518.109 9.875 516.703 8.46875 516.703 6.46875C516.703 5.0625 517.297 3.98438 518.484 3.23438C519.672 2.48438 521.391 2.10938 523.641 2.10938C524.391 2.10938 526.25 2.15625 529.219 2.25H532.031C537.219 2.21875 540.25 2.1875 541.125 2.15625C542.031 2.09375 545.219 1.8125 550.688 1.3125C552.5 1.125 554.156 1.03125 555.656 1.03125C560.781 1.03125 565.344 2.07812 569.344 4.17188C576.312 7.79687 579.797 13.5469 579.797 21.4219C579.797 27.7969 577.359 32.9062 572.484 36.75C567.891 40.3438 562.328 42.1406 555.797 42.1406C554.141 42.1406 552.109 42.0312 549.703 41.8125C548.422 41.7188 547.625 41.6719 547.312 41.6719C546.406 41.6719 545.953 42.1875 545.953 43.2188V43.5L546.281 51.1875C546.344 52.6875 546.609 53.8125 547.078 54.5625C547.578 55.2812 548.578 56.0312 550.078 56.8125C552.109 57.9062 553.125 59.0938 553.125 60.375C553.125 62.3438 551.625 63.8594 548.625 64.9219C545.625 65.9844 541.375 66.5156 535.875 66.5156C524.312 66.5156 518.531 64.5312 518.531 60.5625C518.531 59.625 518.781 58.9062 519.281 58.4062C519.781 57.9062 520.953 57.1875 522.797 56.25C523.922 55.6562 524.578 54.8281 524.766 53.7656C524.953 52.7031 525.078 49.2812 525.141 43.5ZM546.281 12.8906V28.8281C546.281 30.0469 546.547 30.7812 547.078 31.0312C547.984 31.4688 549.125 31.6875 550.5 31.6875C552.562 31.6875 554.297 31.1094 555.703 29.9531C557.734 28.2969 558.75 25.5156 558.75 21.6094C558.75 17.5469 557.562 14.6094 555.188 12.7969C553.688 11.6406 551.875 11.0625 549.75 11.0625C547.438 11.0625 546.281 11.6719 546.281 12.8906ZM636.469 33.1875L645.328 52.1719C646.172 53.9219 646.875 55.0781 647.438 55.6406C648 56.1719 648.859 56.5312 650.016 56.7188C652.266 57.0625 653.391 58.2031 653.391 60.1406C653.391 62.4219 652.016 64.0625 649.266 65.0625C646.516 66.0625 642.016 66.5625 635.766 66.5625C628.703 66.5625 623.469 66.2656 620.062 65.6719C618.5 65.3906 617.25 64.8281 616.312 63.9844C615.406 63.1094 614.953 62.0625 614.953 60.8438C614.953 59.9062 615.188 59.1875 615.656 58.6875C616.156 58.1562 617.062 57.6719 618.375 57.2344C619.844 56.7344 620.578 55.8906 620.578 54.7031C620.578 52.6094 619.312 51.375 616.781 51C614.062 50.625 610.234 50.4375 605.297 50.4375C601.141 50.4375 598.656 50.6875 597.844 51.1875C597.344 51.5 596.906 52.0625 596.531 52.875C596.156 53.6875 595.969 54.4688 595.969 55.2188C595.969 55.9062 596.094 56.3594 596.344 56.5781C596.625 56.7656 597.5 57.0938 598.969 57.5625C600.875 58.125 601.828 59.25 601.828 60.9375C601.828 64.6562 597.375 66.5156 588.469 66.5156C583.406 66.5156 579.688 66.1719 577.312 65.4844C575.125 64.8281 574.031 63.3906 574.031 61.1719C574.031 60.2031 574.266 59.4531 574.734 58.9219C575.234 58.3906 576.109 57.9062 577.359 57.4688C579.391 56.75 580.922 55.75 581.953 54.4688C583.016 53.1562 584.516 50.375 586.453 46.125L593.062 31.6406C595.5 26.3281 597.125 22.3594 597.938 19.7344C598.781 17.0781 599.219 14.4844 599.25 11.9531C599.281 9.26563 599.438 7.40625 599.719 6.375C600.031 5.3125 600.703 4.28125 601.734 3.28125C603.891 1.09375 606.641 0 609.984 0C613.141 0 616.156 1.23437 619.031 3.70312C623.031 7.07812 628.844 16.9062 636.469 33.1875ZM603.844 39.0938H613.031C614.719 39.0938 615.562 38.7188 615.562 37.9688C615.562 36.9375 614.391 34.4062 612.047 30.375C610.984 28.5312 610.172 27.2969 609.609 26.6719C609.047 26.0469 608.453 25.7344 607.828 25.7344C606.703 25.7344 605.766 26.7812 605.016 28.875C604.891 29.1562 604.438 30.2656 603.656 32.2031C602.344 35.3906 601.688 37.2969 601.688 37.9219C601.688 38.7031 602.406 39.0938 603.844 39.0938ZM671.297 1.59375H696C698.656 1.5 701.078 1.14062 703.266 0.515625C704.203 0.265625 705.031 0.140625 705.75 0.140625C708.281 0.140625 710.734 2.01562 713.109 5.76562C715.516 9.51562 716.719 13.375 716.719 17.3438C716.719 20.0625 715.891 22.0469 714.234 23.2969C712.984 24.2344 711.484 24.7031 709.734 24.7031C708.078 24.7031 706.641 24.25 705.422 23.3438C704.203 22.4062 703 20.875 701.812 18.75C700.781 16.8125 699.969 15.5469 699.375 14.9531C698.781 14.3594 698.062 14.0625 697.219 14.0625C696.062 14.0625 695.234 14.5469 694.734 15.5156C694.234 16.4844 693.984 18.0781 693.984 20.2969V46.5469C693.984 49.2344 694.266 51.1875 694.828 52.4062C695.391 53.625 696.453 54.5625 698.016 55.2188C699.703 55.9375 700.844 56.625 701.438 57.2812C702.062 57.9062 702.375 58.7812 702.375 59.9062C702.375 62.1562 700.844 63.8281 697.781 64.9219C694.75 66.0156 690.078 66.5625 683.766 66.5625C676.016 66.5625 670.266 65.9219 666.516 64.6406C663.359 63.5781 661.781 61.8594 661.781 59.4844C661.781 58.2031 662.344 57.2031 663.469 56.4844C663.75 56.3281 664.859 55.9531 666.797 55.3594C667.984 55.0156 668.797 54.3594 669.234 53.3906C669.703 52.4219 670.078 50.5625 670.359 47.8125C670.609 45.375 670.844 41.4375 671.062 36C671.281 30.5312 671.391 25.7969 671.391 21.7969C671.391 18.9844 671.172 16.9844 670.734 15.7969C670.297 14.6094 669.578 14.0156 668.578 14.0156C667.359 14.0156 666.172 14.8906 665.016 16.6406C662.922 19.8281 661.203 21.9375 659.859 22.9688C658.266 24.1875 656.719 24.7969 655.219 24.7969C653.531 24.7969 652.141 24.1719 651.047 22.9219C649.953 21.6406 649.406 20.0156 649.406 18.0469C649.406 16.1094 649.844 13.9844 650.719 11.6719C651.594 9.32812 652.766 7.17188 654.234 5.20312C656.609 2.01562 658.953 0.421875 661.266 0.421875C661.891 0.421875 662.609 0.515625 663.422 0.703125C665.109 1.04687 666.484 1.28125 667.547 1.40625C668.641 1.53125 669.891 1.59375 671.297 1.59375ZM738.75 0.5625C748.5 0.5625 753.375 2.57812 753.375 6.60938C753.375 7.70312 753.125 8.59375 752.625 9.28125C752.125 9.96875 751.172 10.7344 749.766 11.5781C748.547 12.3281 747.766 13.3125 747.422 14.5312C747.109 15.75 746.953 18.2188 746.953 21.9375C746.953 24.125 747.359 25.4688 748.172 25.9688C748.641 26.2812 749.344 26.4688 750.281 26.5312C751.25 26.5938 753.5 26.625 757.031 26.625C760.25 26.625 762.25 26.4531 763.031 26.1094C763.812 25.7656 764.203 24.9062 764.203 23.5312C764.203 19.4062 764.016 16.5312 763.641 14.9062C763.266 13.2812 762.531 12.1719 761.438 11.5781C760.062 10.7969 759.156 10.1406 758.719 9.60938C758.281 9.04688 758.062 8.3125 758.062 7.40625C758.062 6.125 758.547 4.96875 759.516 3.9375C760.484 2.875 761.75 2.15625 763.312 1.78125C766.562 1 770.641 0.609375 775.547 0.609375C781.297 0.609375 785.531 1.14062 788.25 2.20312C791 3.23438 792.375 4.85938 792.375 7.07812C792.375 8.95312 791.406 10.3594 789.469 11.2969C788.25 11.8594 787.453 12.4062 787.078 12.9375C786.703 13.4375 786.406 14.3906 786.188 15.7969C786.062 16.5781 785.906 20.0469 785.719 26.2031C785.531 32.3594 785.438 37.25 785.438 40.875C785.438 47.2188 785.672 51.25 786.141 52.9688C786.391 53.9062 786.672 54.5312 786.984 54.8438C787.297 55.1562 788.281 55.7812 789.938 56.7188C791.125 57.375 791.719 58.375 791.719 59.7188C791.719 62.0938 790.297 63.8281 787.453 64.9219C784.641 65.9844 780.062 66.5156 773.719 66.5156C768.156 66.5156 764.047 65.9688 761.391 64.875C758.984 63.875 757.781 62.3281 757.781 60.2344C757.781 58.4531 758.703 57.0625 760.547 56.0625C761.453 55.5625 762.062 55.0625 762.375 54.5625C762.719 54.0625 763.047 53.1406 763.359 51.7969C763.922 49.1719 764.203 45.9531 764.203 42.1406C764.203 40.1719 763.906 38.9531 763.312 38.4844C762.75 38.0156 761.25 37.7812 758.812 37.7812C753.219 37.7812 749.656 38.0938 748.125 38.7188C747.5 38.9688 747.109 39.7031 746.953 40.9219C746.766 42.4219 746.672 44.2656 746.672 46.4531C746.672 50.0156 747.172 52.5781 748.172 54.1406C748.516 54.6406 749.328 55.2812 750.609 56.0625C751.922 56.8125 752.578 58.0469 752.578 59.7656C752.578 61.9531 751.062 63.625 748.031 64.7812C745 65.9375 740.672 66.5156 735.047 66.5156C729.922 66.5156 725.734 65.9844 722.484 64.9219C721.078 64.4531 719.969 63.7969 719.156 62.9531C718.375 62.0781 717.984 61.125 717.984 60.0938C717.984 59.0625 718.234 58.2656 718.734 57.7031C719.234 57.1406 720.328 56.4219 722.016 55.5469C722.891 55.1094 723.5 54.5469 723.844 53.8594C724.219 53.1719 724.5 52.0156 724.688 50.3906C725.156 46.7344 725.391 41.9531 725.391 36.0469C725.391 34.9531 725.375 33.6562 725.344 32.1562C725.219 24.6562 725.156 20.375 725.156 19.3125C725.188 16.625 724.953 14.8594 724.453 14.0156C723.984 13.1406 722.719 12.1875 720.656 11.1562C719.281 10.5 718.594 9.51562 718.594 8.20312C718.594 5.04688 721.656 2.85938 727.781 1.64062C731.344 0.921875 735 0.5625 738.75 0.5625ZM815.625 0.609375C819.188 0.609375 822.547 0.921875 825.703 1.54688C829.953 2.39062 832.078 4.1875 832.078 6.9375C832.078 7.84375 831.859 8.53125 831.422 9C831.016 9.4375 829.953 10.0938 828.234 10.9688C826.797 11.6875 825.844 13.2656 825.375 15.7031C824.938 18.1406 824.719 22.8906 824.719 29.9531C824.719 41.8906 825.016 49.2812 825.609 52.125C825.828 53.0312 826.156 53.7344 826.594 54.2344C827.062 54.7031 827.859 55.2188 828.984 55.7812C831.047 56.7188 832.078 58.0781 832.078 59.8594C832.078 62.3594 830.172 64.0781 826.359 65.0156C822.234 66.0156 817.188 66.5156 811.219 66.5156C801.031 66.5156 795.938 64.5781 795.938 60.7031C795.938 59.2969 796.938 57.9844 798.938 56.7656C800.469 55.8281 801.375 54.5469 801.656 52.9219C802.25 49.3594 802.547 41.7969 802.547 30.2344C802.547 22.2344 802.141 17.1094 801.328 14.8594C800.891 13.5781 799.844 12.4219 798.188 11.3906C796.906 10.5469 796.047 9.84375 795.609 9.28125C795.172 8.71875 794.953 8 794.953 7.125C794.953 5.78125 795.594 4.71875 796.875 3.9375C798.188 3.125 800.484 2.40625 803.766 1.78125C807.672 1 811.625 0.609375 815.625 0.609375ZM865.969 38.6719C864.781 38.6719 864.016 39.0312 863.672 39.75C863.359 40.4688 863.203 42.1406 863.203 44.7656C863.203 48.7344 863.453 51.8281 863.953 54.0469C864.109 54.6719 864.344 55.1562 864.656 55.5C864.969 55.8438 865.562 56.2656 866.438 56.7656C868.312 57.7969 869.25 59.1562 869.25 60.8438C869.25 62.9062 867.938 64.375 865.312 65.25C862.719 66.0938 858.312 66.5156 852.094 66.5156C840.531 66.5156 834.75 64.3281 834.75 59.9531C834.75 59.2031 834.922 58.6094 835.266 58.1719C835.609 57.7031 836.391 57.0625 837.609 56.25C838.984 55.3438 839.906 54.2812 840.375 53.0625C840.875 51.8125 841.219 49.6719 841.406 46.6406C841.562 44.4219 841.641 36.4688 841.641 22.7812C841.641 18.4375 841.422 15.4844 840.984 13.9219C840.547 12.3594 839.609 11.2188 838.172 10.5C836.797 9.84375 835.875 9.25 835.406 8.71875C834.938 8.15625 834.703 7.4375 834.703 6.5625C834.703 5.40625 835.141 4.40625 836.016 3.5625C836.922 2.6875 838.172 2.04688 839.766 1.64062C841.109 1.29688 842.953 1.125 845.297 1.125C846.328 1.125 848.906 1.28125 853.031 1.59375C853.812 1.65625 855.047 1.6875 856.734 1.6875C859.547 1.6875 863.297 1.5 867.984 1.125C870.953 0.90625 873.031 0.796875 874.219 0.796875C880.906 0.796875 886.438 2.40625 890.812 5.625C894.75 8.53125 896.719 12.5625 896.719 17.7188C896.719 20.5938 896.031 23.2188 894.656 25.5938C893.281 27.9375 891.391 29.7031 888.984 30.8906C887.984 31.3906 887.484 31.9844 887.484 32.6719C887.484 33.5781 888.25 34.3125 889.781 34.875C893.062 36.0625 895.469 37.8594 897 40.2656C898.531 42.6719 899.625 46.3594 900.281 51.3281C900.562 53.3906 900.969 54.7344 901.5 55.3594C902.031 55.9531 903.266 56.5312 905.203 57.0938C905.797 57.2812 906.297 57.6875 906.703 58.3125C907.109 58.9062 907.312 59.5781 907.312 60.3281C907.312 61.2969 906.938 62.2812 906.188 63.2812C905.438 64.25 904.469 65.0156 903.281 65.5781C900.656 66.7969 897.062 67.4062 892.5 67.4062C886.406 67.4062 882.047 65.7969 879.422 62.5781C878.234 61.1406 877.219 59.3281 876.375 57.1406C875.562 54.9531 874.594 51.5469 873.469 46.9219C872.75 43.9531 871.828 41.8594 870.703 40.6406C869.609 39.4219 868.031 38.7656 865.969 38.6719ZM863.25 14.7656L862.734 25.6875C862.734 25.7812 862.734 25.9219 862.734 26.1094C862.734 27.2344 862.891 27.9844 863.203 28.3594C863.547 28.7344 864.219 28.9219 865.219 28.9219C867.969 28.9219 869.969 28.2188 871.219 26.8125C872.469 25.375 873.094 23.0938 873.094 19.9688C873.094 13.9375 870.953 10.9219 866.672 10.9219C865.453 10.9219 864.594 11.2031 864.094 11.7656C863.594 12.3281 863.312 13.3281 863.25 14.7656ZM970.406 33.1875L979.266 52.1719C980.109 53.9219 980.812 55.0781 981.375 55.6406C981.938 56.1719 982.797 56.5312 983.953 56.7188C986.203 57.0625 987.328 58.2031 987.328 60.1406C987.328 62.4219 985.953 64.0625 983.203 65.0625C980.453 66.0625 975.953 66.5625 969.703 66.5625C962.641 66.5625 957.406 66.2656 954 65.6719C952.438 65.3906 951.188 64.8281 950.25 63.9844C949.344 63.1094 948.891 62.0625 948.891 60.8438C948.891 59.9062 949.125 59.1875 949.594 58.6875C950.094 58.1562 951 57.6719 952.312 57.2344C953.781 56.7344 954.516 55.8906 954.516 54.7031C954.516 52.6094 953.25 51.375 950.719 51C948 50.625 944.172 50.4375 939.234 50.4375C935.078 50.4375 932.594 50.6875 931.781 51.1875C931.281 51.5 930.844 52.0625 930.469 52.875C930.094 53.6875 929.906 54.4688 929.906 55.2188C929.906 55.9062 930.031 56.3594 930.281 56.5781C930.562 56.7656 931.438 57.0938 932.906 57.5625C934.812 58.125 935.766 59.25 935.766 60.9375C935.766 64.6562 931.312 66.5156 922.406 66.5156C917.344 66.5156 913.625 66.1719 911.25 65.4844C909.062 64.8281 907.969 63.3906 907.969 61.1719C907.969 60.2031 908.203 59.4531 908.672 58.9219C909.172 58.3906 910.047 57.9062 911.297 57.4688C913.328 56.75 914.859 55.75 915.891 54.4688C916.953 53.1562 918.453 50.375 920.391 46.125L927 31.6406C929.438 26.3281 931.062 22.3594 931.875 19.7344C932.719 17.0781 933.156 14.4844 933.188 11.9531C933.219 9.26563 933.375 7.40625 933.656 6.375C933.969 5.3125 934.641 4.28125 935.672 3.28125C937.828 1.09375 940.578 0 943.922 0C947.078 0 950.094 1.23437 952.969 3.70312C956.969 7.07812 962.781 16.9062 970.406 33.1875ZM937.781 39.0938H946.969C948.656 39.0938 949.5 38.7188 949.5 37.9688C949.5 36.9375 948.328 34.4062 945.984 30.375C944.922 28.5312 944.109 27.2969 943.547 26.6719C942.984 26.0469 942.391 25.7344 941.766 25.7344C940.641 25.7344 939.703 26.7812 938.953 28.875C938.828 29.1562 938.375 30.2656 937.594 32.2031C936.281 35.3906 935.625 37.2969 935.625 37.9219C935.625 38.7031 936.344 39.0938 937.781 39.0938ZM1027.92 0.609375C1031.42 0.609375 1034.98 0.921875 1038.61 1.54688C1041.58 2.04688 1043.7 2.73437 1044.98 3.60938C1046.27 4.48438 1046.91 5.6875 1046.91 7.21875C1046.91 8.1875 1046.67 8.95312 1046.2 9.51562C1045.73 10.0469 1044.72 10.7031 1043.16 11.4844C1041.34 12.4219 1040.3 13.5312 1040.02 14.8125C1039.77 16.0625 1039.53 20.9688 1039.31 29.5312C1039.22 37.8125 1039.12 42.7812 1039.03 44.4375C1038.97 46.0938 1038.78 47.7031 1038.47 49.2656C1037.56 53.8281 1035.73 57.4062 1032.98 60C1030.73 62.125 1027.84 63.7969 1024.31 65.0156C1020.78 66.2344 1017.06 66.8438 1013.16 66.8438C1009.69 66.8438 1006.2 66.3906 1002.7 65.4844C999.234 64.5781 996.219 63.3281 993.656 61.7344C991.531 60.4219 989.844 58.6562 988.594 56.4375C987.344 54.1875 986.719 51.7969 986.719 49.2656C986.719 46.1406 987.703 43.5625 989.672 41.5312C991.641 39.4688 994.109 38.4375 997.078 38.4375C999.984 38.4375 1002.45 39.2969 1004.48 41.0156C1006.52 42.7656 1007.53 44.9219 1007.53 47.4844C1007.53 48.1406 1007.34 49.2344 1006.97 50.7656C1006.91 51.0781 1006.88 51.4219 1006.88 51.7969C1006.88 52.7969 1007.23 53.6094 1007.95 54.2344C1008.67 54.8594 1009.62 55.1719 1010.81 55.1719C1012.91 55.1719 1014.59 54.2344 1015.88 52.3594C1017.16 50.4844 1017.8 48.0156 1017.8 44.9531L1017.75 40.6875L1017.66 29.2031C1017.38 22.2344 1017.16 18.1406 1017 16.9219C1016.88 15.6719 1016.53 14.6562 1015.97 13.875C1015.5 13.25 1015.08 12.8438 1014.7 12.6562C1014.36 12.4688 1013.39 12.1719 1011.8 11.7656C1011.05 11.6094 1010.41 11.1719 1009.88 10.4531C1009.34 9.73438 1009.08 8.96875 1009.08 8.15625C1009.08 6.46875 1009.73 5.125 1011.05 4.125C1012.39 3.09375 1014.56 2.26562 1017.56 1.64062C1020.91 0.953125 1024.36 0.609375 1027.92 0.609375ZM1105.78 33.1875L1114.64 52.1719C1115.48 53.9219 1116.19 55.0781 1116.75 55.6406C1117.31 56.1719 1118.17 56.5312 1119.33 56.7188C1121.58 57.0625 1122.7 58.2031 1122.7 60.1406C1122.7 62.4219 1121.33 64.0625 1118.58 65.0625C1115.83 66.0625 1111.33 66.5625 1105.08 66.5625C1098.02 66.5625 1092.78 66.2656 1089.38 65.6719C1087.81 65.3906 1086.56 64.8281 1085.62 63.9844C1084.72 63.1094 1084.27 62.0625 1084.27 60.8438C1084.27 59.9062 1084.5 59.1875 1084.97 58.6875C1085.47 58.1562 1086.38 57.6719 1087.69 57.2344C1089.16 56.7344 1089.89 55.8906 1089.89 54.7031C1089.89 52.6094 1088.62 51.375 1086.09 51C1083.38 50.625 1079.55 50.4375 1074.61 50.4375C1070.45 50.4375 1067.97 50.6875 1067.16 51.1875C1066.66 51.5 1066.22 52.0625 1065.84 52.875C1065.47 53.6875 1065.28 54.4688 1065.28 55.2188C1065.28 55.9062 1065.41 56.3594 1065.66 56.5781C1065.94 56.7656 1066.81 57.0938 1068.28 57.5625C1070.19 58.125 1071.14 59.25 1071.14 60.9375C1071.14 64.6562 1066.69 66.5156 1057.78 66.5156C1052.72 66.5156 1049 66.1719 1046.62 65.4844C1044.44 64.8281 1043.34 63.3906 1043.34 61.1719C1043.34 60.2031 1043.58 59.4531 1044.05 58.9219C1044.55 58.3906 1045.42 57.9062 1046.67 57.4688C1048.7 56.75 1050.23 55.75 1051.27 54.4688C1052.33 53.1562 1053.83 50.375 1055.77 46.125L1062.38 31.6406C1064.81 26.3281 1066.44 22.3594 1067.25 19.7344C1068.09 17.0781 1068.53 14.4844 1068.56 11.9531C1068.59 9.26563 1068.75 7.40625 1069.03 6.375C1069.34 5.3125 1070.02 4.28125 1071.05 3.28125C1073.2 1.09375 1075.95 0 1079.3 0C1082.45 0 1085.47 1.23437 1088.34 3.70312C1092.34 7.07812 1098.16 16.9062 1105.78 33.1875ZM1073.16 39.0938H1082.34C1084.03 39.0938 1084.88 38.7188 1084.88 37.9688C1084.88 36.9375 1083.7 34.4062 1081.36 30.375C1080.3 28.5312 1079.48 27.2969 1078.92 26.6719C1078.36 26.0469 1077.77 25.7344 1077.14 25.7344C1076.02 25.7344 1075.08 26.7812 1074.33 28.875C1074.2 29.1562 1073.75 30.2656 1072.97 32.2031C1071.66 35.3906 1071 37.2969 1071 37.9219C1071 38.7031 1071.72 39.0938 1073.16 39.0938Z" fill="url(#paint0_linear_2015_7)"/>
<defs>
<linearGradient id="paint0_linear_2015_7" x1="0" y1="75.0781" x2="1293" y2="75.0781" gradientUnits="userSpaceOnUse">
<stop stop-color="#A5A2A2"/>
<stop offset="1" stop-color="#9056E7"/>
</linearGradient>
</defs>
</svg>
